<svg width="30" height="30" viewBox="0 0 30 30" fill="none" xmlns="http://www.w3.org/2000/svg">
<path d="M21.25 3.75001C21.5783 3.42171 21.9681 3.16128 22.397 2.9836C22.826 2.80593 23.2857 2.71448 23.75 2.71448C24.2143 2.71448 24.674 2.80593 25.103 2.9836C25.5319 3.16128 25.9217 3.42171 26.25 3.75001C26.5783 4.07832 26.8387 4.46807 27.0164 4.89702C27.1941 5.32597 27.2855 5.78572 27.2855 6.25001C27.2855 6.7143 27.1941 7.17405 27.0164 7.603C26.8387 8.03195 26.5783 8.42171 26.25 8.75001L9.375 25.625L2.5 27.5L4.375 20.625L21.25 3.75001Z" stroke="#6366F1" stroke-width="4" stroke-linecap="round" stroke-linejoin="round"/>
</svg>
